<svg id="svg" xmlns="http://www.w3.org/2000/svg" xmlns:xlink="http://www.w3.org/1999/xlink" width="400" height="388.15399802566634" viewBox="0, 0, 400,388.15399802566634"><g id="svgg"><path id="path0" d="M99.740 0.821 C 90.022 2.508,87.693 4.258,83.293 13.176 C 82.511 14.763,81.806 16.397,81.727 16.808 C 81.647 17.219,81.380 17.799,81.132 18.098 C 80.884 18.396,80.812 18.641,80.971 18.641 C 81.130 18.641,81.020 18.930,80.727 19.283 C 80.434 19.636,80.238 19.986,80.291 20.060 C 80.345 20.134,80.375 20.238,80.359 20.291 C 80.342 20.345,80.276 20.650,80.211 20.971 C 80.146 21.291,79.537 23.301,78.857 25.437 C 78.177 27.573,77.547 29.670,77.456 30.097 C 77.366 30.524,76.844 32.621,76.296 34.757 C 75.748 36.893,75.235 38.903,75.155 39.223 C 75.076 39.544,74.986 39.806,74.955 39.806 C 74.924 39.806,74.822 40.401,74.728 41.129 C 74.633 41.857,74.362 42.688,74.124 42.974 C 73.886 43.261,73.784 43.495,73.898 43.495 C 74.011 43.495,73.422 46.073,72.589 49.223 C 70.893 55.639,70.941 55.451,70.037 59.302 C 69.667 60.879,69.216 61.997,69.003 61.866 C 68.778 61.727,68.704 62.044,68.820 62.649 C 68.939 63.271,68.863 63.573,68.625 63.426 C 68.387 63.278,68.313 63.583,68.434 64.214 C 68.542 64.780,68.459 65.243,68.250 65.243 C 68.041 65.243,67.962 65.592,68.074 66.020 C 68.200 66.504,68.123 66.702,67.869 66.545 C 67.607 66.383,67.530 66.656,67.654 67.307 C 67.761 67.866,67.719 68.372,67.561 68.433 C 67.328 68.523,65.899 73.999,63.074 85.631 C 62.918 86.272,62.741 86.971,62.680 87.184 C 62.620 87.398,62.472 87.966,62.353 88.447 C 62.234 88.927,62.038 89.714,61.919 90.194 C 61.799 90.675,61.607 91.592,61.492 92.233 C 61.377 92.874,61.119 93.704,60.919 94.078 C 60.719 94.451,60.624 94.757,60.708 94.757 C 60.830 94.757,58.460 104.812,57.665 107.670 C 57.295 108.999,57.048 110.111,56.899 111.118 C 56.816 111.679,56.466 113.165,56.121 114.419 C 55.777 115.673,55.411 117.148,55.308 117.696 C 55.206 118.244,54.335 121.914,53.375 125.851 C 52.414 129.788,51.568 133.359,51.494 133.786 C 51.421 134.214,51.324 134.563,51.279 134.563 C 51.234 134.563,51.139 134.913,51.068 135.340 C 50.864 136.565,50.492 138.258,49.873 140.777 C 49.557 142.058,49.206 143.631,49.091 144.272 C 48.976 144.913,48.687 146.136,48.450 146.990 C 48.212 147.845,48.036 148.635,48.057 148.747 C 48.079 148.859,47.757 150.344,47.341 152.048 C 46.620 155.003,46.294 156.382,46.012 157.670 C 45.942 157.990,45.871 158.656,45.855 159.149 C 45.836 159.719,45.663 159.946,45.381 159.771 C 45.074 159.582,44.996 159.812,45.130 160.513 C 45.237 161.072,45.195 161.450,45.036 161.351 C 44.631 161.101,44.171 164.486,44.467 165.539 C 44.613 166.061,44.580 166.221,44.382 165.940 C 44.103 165.543,43.231 169.103,42.126 175.146 C 42.028 175.680,41.856 176.553,41.744 177.087 C 41.631 177.621,41.443 178.670,41.325 179.417 C 41.208 180.165,40.852 181.913,40.535 183.301 C 39.995 185.661,39.017 190.413,38.615 192.621 C 38.518 193.155,38.326 194.029,38.188 194.563 C 37.770 196.178,37.749 196.270,37.515 197.476 C 37.391 198.117,37.191 199.078,37.071 199.612 C 36.950 200.146,36.762 201.271,36.652 202.113 C 36.542 202.955,36.283 203.960,36.077 204.346 C 35.870 204.733,35.771 205.049,35.858 205.049 C 35.944 205.049,35.684 206.578,35.279 208.447 C 34.875 210.316,34.448 212.369,34.330 213.010 C 34.212 213.650,33.949 214.874,33.745 215.728 C 33.541 216.583,33.290 217.718,33.188 218.252 C 33.085 218.786,32.891 219.660,32.755 220.194 C 32.620 220.728,32.462 221.427,32.404 221.748 C 32.149 223.153,31.818 224.733,31.590 225.631 C 31.455 226.165,31.297 226.864,31.239 227.184 C 30.966 228.688,30.597 230.384,29.800 233.786 C 28.685 238.550,28.550 250.113,29.589 251.859 C 29.711 252.065,29.942 252.839,30.101 253.579 C 30.260 254.320,30.528 255.194,30.698 255.521 C 30.867 255.849,31.331 256.816,31.728 257.670 C 32.491 259.310,33.688 261.256,34.390 261.996 C 34.621 262.240,35.251 262.963,35.790 263.603 C 37.241 265.327,41.151 268.171,42.816 268.712 C 43.617 268.973,44.272 269.377,44.272 269.609 C 44.272 269.842,44.375 269.929,44.501 269.803 C 44.627 269.677,45.457 269.833,46.346 270.149 C 49.941 271.431,53.263 271.998,59.612 272.417 C 63.106 272.648,70.054 273.184,75.340 273.633 C 76.728 273.750,78.476 273.846,79.223 273.846 C 80.431 273.845,80.474 273.877,79.612 274.136 C 78.381 274.506,86.802 275.116,88.634 274.791 C 89.643 274.611,89.744 274.644,89.126 274.950 C 88.559 275.232,89.152 275.308,91.332 275.234 C 92.973 275.179,94.124 275.251,93.892 275.395 C 93.659 275.539,94.616 275.716,96.019 275.789 C 97.421 275.862,98.488 275.791,98.388 275.631 C 98.288 275.471,98.489 275.340,98.835 275.340 C 99.181 275.340,99.355 275.515,99.223 275.728 C 99.077 275.965,99.711 276.128,100.851 276.146 C 101.878 276.163,102.981 276.228,103.301 276.291 C 103.621 276.354,105.544 276.522,107.573 276.665 C 109.602 276.808,112.136 277.000,113.204 277.092 C 116.318 277.361,119.988 277.652,122.913 277.862 C 126.221 278.099,130.589 278.462,132.427 278.652 C 133.175 278.729,135.534 278.891,137.670 279.012 C 139.806 279.133,142.340 279.312,143.301 279.409 C 147.400 279.826,152.558 280.290,156.505 280.598 C 158.107 280.723,160.291 280.899,161.359 280.989 C 162.427 281.079,164.524 281.240,166.019 281.347 C 168.661 281.535,171.536 281.771,175.922 282.158 C 177.097 282.262,179.107 282.428,180.388 282.529 C 181.670 282.629,183.767 282.797,185.049 282.903 C 186.330 283.009,188.602 283.188,190.097 283.302 C 195.330 283.699,197.987 283.916,204.466 284.474 C 213.862 285.282,216.859 285.522,217.670 285.531 C 218.097 285.536,220.194 285.690,222.330 285.875 C 224.466 286.059,227.262 286.297,228.544 286.403 C 232.961 286.769,236.316 287.047,238.058 287.191 C 239.019 287.270,241.204 287.434,242.913 287.555 C 244.621 287.676,246.893 287.857,247.961 287.957 C 249.029 288.058,251.214 288.233,252.816 288.348 C 254.417 288.463,256.777 288.645,258.058 288.753 C 259.340 288.861,261.437 289.024,262.718 289.116 C 265.309 289.301,269.467 289.636,272.427 289.898 C 275.465 290.167,280.446 290.575,281.942 290.677 C 282.689 290.728,285.311 290.911,287.767 291.084 C 294.581 291.563,301.735 291.409,304.890 290.713 C 305.761 290.522,307.374 290.236,309.391 289.917 C 311.280 289.618,318.520 286.391,319.877 285.243 C 323.171 282.456,327.508 276.886,327.508 275.441 C 327.508 275.172,327.654 274.951,327.832 274.951 C 328.010 274.951,328.116 274.820,328.068 274.660 C 327.863 273.976,329.059 270.712,329.430 270.942 C 329.680 271.096,329.749 270.874,329.612 270.351 C 329.473 269.820,329.542 269.606,329.801 269.766 C 330.064 269.928,330.139 269.651,330.013 268.990 C 329.905 268.424,329.987 267.961,330.196 267.961 C 330.405 267.961,330.485 267.611,330.373 267.184 C 330.261 266.756,330.328 266.505,330.522 266.624 C 330.715 266.744,330.896 266.482,330.922 266.042 C 330.949 265.603,331.006 265.112,331.050 264.951 C 331.116 264.705,331.727 261.961,331.849 261.359 C 331.871 261.252,332.013 260.641,332.164 260.000 C 332.316 259.359,332.525 258.442,332.628 257.961 C 332.731 257.481,332.906 256.694,333.017 256.214 C 333.127 255.733,333.319 254.728,333.443 253.981 C 333.568 253.233,333.743 252.501,333.833 252.354 C 333.923 252.207,334.100 251.333,334.227 250.412 C 334.353 249.491,334.618 248.432,334.815 248.058 C 335.012 247.684,335.095 247.379,335.000 247.379 C 334.854 247.379,335.289 245.293,336.176 241.748 C 336.283 241.320,336.441 240.487,336.528 239.895 C 336.615 239.303,336.966 237.643,337.308 236.206 C 337.651 234.768,338.016 233.068,338.121 232.427 C 338.226 231.786,338.480 230.563,338.685 229.709 C 338.891 228.854,339.153 227.631,339.268 226.990 C 339.382 226.350,339.645 225.126,339.850 224.272 C 340.056 223.417,340.320 222.194,340.436 221.553 C 340.552 220.913,340.899 219.252,341.207 217.864 C 341.938 214.567,342.045 214.046,342.325 212.427 C 342.455 211.680,342.656 210.806,342.772 210.485 C 342.888 210.165,343.067 209.214,343.168 208.372 C 343.270 207.530,343.522 206.525,343.729 206.139 C 343.936 205.753,344.034 205.437,343.948 205.437 C 343.862 205.437,344.122 203.908,344.526 202.039 C 344.931 200.170,345.358 198.117,345.476 197.476 C 345.593 196.835,345.856 195.612,346.060 194.757 C 346.264 193.903,346.519 192.592,346.627 191.845 C 346.735 191.097,347.012 189.786,347.243 188.932 C 347.474 188.078,347.739 186.854,347.831 186.214 C 347.923 185.573,348.093 184.786,348.209 184.466 C 348.325 184.146,348.504 183.192,348.606 182.347 C 348.708 181.501,348.880 180.666,348.989 180.491 C 349.097 180.316,349.249 179.697,349.327 179.115 C 349.405 178.534,349.746 176.835,350.084 175.340 C 350.845 171.975,350.971 171.366,351.211 169.903 C 351.316 169.262,351.598 167.951,351.837 166.990 C 352.346 164.951,352.501 164.053,352.578 162.718 C 352.623 161.923,352.707 161.853,353.043 162.330 C 353.358 162.778,353.418 162.625,353.302 161.671 C 353.213 160.947,353.305 160.525,353.521 160.658 C 353.738 160.792,353.818 160.391,353.715 159.687 C 353.611 158.984,353.692 158.582,353.909 158.716 C 354.126 158.851,354.206 158.449,354.103 157.746 C 354.000 157.042,354.080 156.640,354.297 156.775 C 354.515 156.909,354.594 156.504,354.490 155.793 C 354.392 155.127,354.454 154.534,354.627 154.475 C 354.801 154.417,355.121 153.408,355.338 152.233 C 355.556 151.058,355.821 149.660,355.929 149.126 C 356.037 148.592,356.208 147.718,356.311 147.184 C 356.413 146.650,356.595 145.777,356.715 145.243 C 357.508 141.713,357.665 140.908,357.882 139.265 C 357.992 138.433,358.161 137.623,358.259 137.465 C 358.357 137.307,358.541 136.502,358.668 135.676 C 358.796 134.850,359.162 132.951,359.482 131.456 C 359.803 129.961,360.151 128.214,360.256 127.573 C 360.361 126.932,360.615 125.709,360.819 124.854 C 361.187 123.321,361.326 122.680,361.707 120.777 C 362.188 118.373,362.297 117.772,362.511 116.352 C 362.637 115.520,362.916 114.122,363.131 113.245 C 363.346 112.368,363.604 111.214,363.704 110.680 C 363.804 110.146,363.962 109.359,364.056 108.932 C 364.149 108.505,364.334 107.544,364.466 106.796 C 364.696 105.499,366.844 95.026,367.214 93.398 C 367.311 92.971,367.475 92.010,367.579 91.262 C 367.724 90.213,369.788 79.716,371.053 73.592 C 371.237 72.704,371.633 70.466,371.809 69.320 C 371.874 68.893,372.296 66.359,372.746 63.689 C 374.112 55.587,374.183 54.751,373.955 49.320 C 373.408 36.302,366.829 28.273,355.340 26.603 C 354.806 26.526,353.495 26.260,352.427 26.014 C 351.359 25.768,349.874 25.493,349.126 25.404 C 348.379 25.315,346.544 25.054,345.049 24.825 C 342.106 24.375,341.132 24.249,337.864 23.902 C 336.689 23.777,334.330 23.495,332.621 23.275 C 330.913 23.055,328.816 22.789,327.961 22.683 C 327.107 22.576,325.883 22.422,325.243 22.339 C 324.602 22.256,323.226 22.093,322.185 21.975 C 321.144 21.858,320.095 21.609,319.855 21.422 C 319.229 20.934,311.298 20.075,310.222 20.379 C 309.499 20.583,309.436 20.547,309.903 20.200 C 310.352 19.866,310.017 19.794,308.446 19.883 C 307.325 19.948,306.407 19.889,306.408 19.754 C 306.408 19.619,305.141 19.382,303.592 19.227 C 302.044 19.072,300.496 18.896,300.153 18.836 C 299.809 18.775,298.324 18.615,296.852 18.479 C 295.379 18.343,293.563 18.155,292.816 18.062 C 292.068 17.969,290.670 17.795,289.709 17.675 C 285.608 17.164,269.491 15.973,267.465 16.032 C 266.014 16.074,267.378 16.841,280.583 23.415 C 324.297 45.179,342.521 58.917,342.248 69.903 C 342.052 77.804,338.250 106.806,331.839 149.320 C 322.209 213.172,313.311 254.306,307.878 260.089 C 303.548 264.697,287.356 250.212,261.475 218.579 C 231.844 182.363,230.032 176.919,235.766 141.359 C 238.092 126.935,238.801 121.458,238.274 121.985 C 238.179 122.080,236.954 127.345,235.553 133.686 C 229.044 163.132,225.069 169.330,208.475 175.901 C 180.998 186.783,140.043 185.953,84.466 173.388 C 68.754 169.835,64.354 169.314,62.531 170.790 C 61.079 171.966,62.001 177.930,69.339 214.821 C 74.212 239.318,74.992 243.883,74.303 243.883 C 71.656 243.883,65.879 229.519,59.465 206.990 C 47.207 163.932,47.216 158.067,59.612 115.922 C 66.535 92.385,68.025 86.386,74.768 54.885 C 81.085 25.374,81.889 22.716,86.614 15.711 C 93.765 5.111,106.264 0.182,123.088 1.330 C 127.794 1.651,127.512 1.364,122.524 0.756 C 116.403 0.011,104.208 0.045,99.740 0.821 M17.774 311.272 C 17.717 311.322,14.612 311.467,10.874 311.595 C 4.313 311.820,2.105 312.005,0.710 312.448 C 0.101 312.642,0.066 313.871,0.240 328.853 C 0.344 337.761,0.419 349.723,0.408 355.437 L 0.388 365.825 5.489 365.825 L 10.590 365.825 10.411 355.825 L 10.231 345.825 15.116 345.763 C 30.194 345.570,38.859 336.049,35.529 323.332 C 34.209 318.290,29.007 312.545,25.827 312.617 C 25.719 312.619,25.587 312.608,25.534 312.593 C 24.666 312.334,17.882 311.180,17.774 311.272 M19.349 319.840 C 19.834 320.180,20.493 320.357,20.815 320.233 C 21.136 320.110,21.304 320.163,21.187 320.352 C 20.910 320.801,22.075 321.243,22.656 320.910 C 22.904 320.768,22.982 320.791,22.829 320.960 C 22.676 321.130,22.969 321.597,23.481 322.000 C 26.907 324.695,27.145 330.795,23.958 334.279 C 22.104 336.306,19.184 337.232,14.563 337.258 L 10.291 337.282 10.198 328.474 C 10.091 318.301,9.554 319.338,14.962 319.268 C 17.594 319.235,18.688 319.377,19.349 319.840 M98.595 325.585 C 96.561 326.312,94.421 327.715,93.724 328.778 C 93.391 329.286,92.963 329.606,92.773 329.488 C 92.465 329.298,92.359 329.592,92.462 330.353 C 92.481 330.494,92.219 330.765,91.879 330.955 C 91.540 331.145,91.237 331.773,91.207 332.349 C 91.176 332.926,91.018 331.769,90.855 329.778 C 90.692 327.787,90.499 326.126,90.425 326.088 C 90.351 326.050,88.456 326.073,86.213 326.140 L 82.134 326.260 82.233 339.149 C 82.287 346.239,82.437 354.879,82.566 358.350 L 82.801 364.660 87.614 364.660 L 92.427 364.660 92.427 353.273 C 92.427 342.396,92.910 337.441,93.876 338.407 C 93.984 338.515,94.664 337.896,95.386 337.032 C 96.108 336.168,96.702 335.608,96.705 335.788 C 96.708 335.969,96.839 335.941,96.996 335.726 C 97.520 335.009,100.031 334.369,102.317 334.369 L 104.578 334.369 104.331 331.748 C 104.195 330.306,104.082 328.209,104.080 327.087 L 104.078 325.049 102.039 325.066 C 100.917 325.075,99.368 325.309,98.595 325.585 M119.417 325.292 C 105.618 328.796,105.229 344.074,118.835 348.162 C 123.099 349.443,126.214 351.803,126.214 353.752 C 126.214 358.072,119.318 359.165,112.136 355.983 C 110.671 355.334,109.893 355.154,109.873 355.458 C 109.857 355.714,109.780 356.184,109.702 356.505 C 109.624 356.825,109.452 357.524,109.320 358.058 C 109.189 358.592,109.042 359.204,108.996 359.417 C 108.949 359.631,108.823 359.981,108.716 360.194 C 106.382 364.871,122.181 367.005,129.903 363.057 C 136.401 359.734,137.889 350.176,132.678 345.235 C 131.240 343.872,127.617 341.772,126.676 341.756 C 126.397 341.751,126.276 341.573,126.408 341.359 C 126.540 341.146,126.414 340.971,126.128 340.971 C 125.340 340.971,120.134 338.396,119.787 337.834 C 119.429 337.255,118.837 334.241,119.141 334.545 C 119.255 334.659,119.593 334.403,119.892 333.976 C 121.349 331.895,124.775 331.537,129.155 333.007 C 130.797 333.558,132.186 333.959,132.241 333.898 C 132.589 333.516,134.004 327.611,133.846 327.199 C 133.311 325.806,122.843 324.423,119.417 325.292 M50.485 326.026 C 49.097 326.309,47.234 326.804,46.346 327.125 C 45.457 327.445,44.627 327.605,44.501 327.478 C 44.375 327.352,44.272 327.463,44.272 327.725 C 44.272 327.987,44.097 328.093,43.883 327.961 C 43.670 327.829,43.495 327.906,43.495 328.132 C 43.495 328.359,43.364 328.523,43.204 328.498 C 42.303 328.355,42.009 328.631,42.162 329.475 C 42.436 330.983,43.898 335.534,44.109 335.534 C 44.215 335.534,44.995 335.181,45.841 334.749 C 46.687 334.318,47.379 334.077,47.379 334.214 C 47.379 334.352,47.641 334.246,47.961 333.981 C 48.282 333.715,48.544 333.627,48.544 333.786 C 48.544 333.946,48.806 333.858,49.126 333.592 C 49.447 333.326,49.709 333.224,49.709 333.364 C 49.709 333.505,50.064 333.429,50.498 333.197 C 53.479 331.602,60.712 333.453,61.762 336.080 C 62.735 338.512,61.936 339.402,58.770 339.412 C 57.860 339.415,57.053 339.630,56.926 339.903 C 56.775 340.227,56.631 340.249,56.495 339.971 C 56.353 339.679,55.656 339.668,54.181 339.936 C 53.020 340.146,52.145 340.440,52.237 340.589 C 52.329 340.737,51.946 340.771,51.387 340.664 C 50.622 340.518,50.447 340.595,50.682 340.975 C 50.897 341.323,50.842 341.385,50.502 341.175 C 50.232 341.008,49.899 341.037,49.762 341.239 C 49.497 341.633,45.846 343.477,45.309 343.488 C 45.131 343.492,44.764 343.798,44.493 344.169 C 44.223 344.539,43.916 344.758,43.813 344.654 C 42.780 343.622,39.786 350.214,39.656 353.807 C 39.515 357.700,42.781 364.611,44.314 363.663 C 44.504 363.546,44.660 363.606,44.660 363.798 C 44.660 363.990,45.353 364.376,46.201 364.656 C 47.048 364.936,47.634 365.338,47.502 365.551 C 47.357 365.787,47.661 365.862,48.280 365.743 C 48.839 365.637,49.204 365.699,49.092 365.881 C 48.979 366.064,50.207 366.214,51.822 366.214 C 53.436 366.214,54.757 366.069,54.757 365.893 C 54.757 365.716,55.325 365.628,56.019 365.698 C 56.714 365.767,57.047 365.717,56.760 365.586 C 56.447 365.444,57.135 364.983,58.468 364.441 C 59.695 363.942,61.265 362.986,61.956 362.316 C 63.335 360.980,63.609 361.118,63.751 363.216 L 63.845 364.618 68.584 364.736 L 73.322 364.854 73.155 359.029 C 73.063 355.825,72.946 349.810,72.896 345.662 C 72.830 340.220,72.675 338.076,72.340 337.964 C 72.040 337.864,71.960 337.385,72.115 336.611 C 72.284 335.764,72.224 335.494,71.910 335.688 C 71.634 335.859,71.543 335.760,71.671 335.427 C 71.921 334.776,71.318 333.099,70.494 332.151 C 70.162 331.769,69.344 330.794,68.678 329.985 C 65.460 326.078,58.085 324.473,50.485 326.026 M62.494 350.032 C 62.380 355.454,59.501 358.688,55.044 358.399 C 49.376 358.031,48.147 350.965,53.286 348.291 C 55.062 347.366,55.360 347.269,57.476 346.932 C 58.223 346.813,58.893 346.660,58.964 346.594 C 59.036 346.527,59.876 346.472,60.832 346.472 L 62.570 346.472 62.494 350.032 M286.990 377.670 L 286.990 387.961 288.014 387.961 L 289.037 387.961 288.850 383.107 L 288.663 378.252 292.681 378.252 C 296.440 378.252,296.699 378.202,296.699 377.476 C 296.699 376.748,296.440 376.699,292.621 376.699 L 288.544 376.699 288.544 372.816 L 288.544 368.932 292.816 368.932 C 296.828 368.932,297.087 368.885,297.087 368.155 C 297.087 367.418,296.828 367.379,292.039 367.379 L 286.990 367.379 286.990 377.670 M378.732 372.466 C 376.643 372.858,376.311 373.070,376.311 374.004 C 376.311 374.740,377.079 375.025,377.616 374.487 C 379.394 372.710,383.475 374.309,383.757 376.893 C 383.883 378.052,383.870 378.060,381.553 378.283 C 378.445 378.582,375.534 380.207,375.534 381.644 C 375.534 381.940,375.359 382.074,375.146 381.942 C 374.906 381.793,374.757 382.477,374.757 383.731 C 374.757 384.847,374.853 385.665,374.969 385.549 C 375.085 385.433,375.683 385.840,376.298 386.455 C 377.691 387.847,380.201 387.981,382.540 386.788 C 383.831 386.130,384.078 386.098,384.078 386.594 C 384.078 386.947,384.429 387.185,384.951 387.185 C 385.823 387.186,385.825 387.169,385.697 381.662 C 385.503 373.268,384.127 371.452,378.732 372.466 M397.573 372.307 C 397.199 372.404,396.893 372.656,396.893 372.867 C 396.893 373.077,396.729 373.148,396.529 373.024 C 396.328 372.901,395.982 373.109,395.758 373.487 C 395.385 374.119,395.332 374.104,395.107 373.301 C 394.971 372.820,394.575 372.427,394.227 372.427 C 393.662 372.428,393.592 373.239,393.592 379.805 C 393.592 383.863,393.723 387.183,393.883 387.184 C 394.044 387.184,394.437 387.184,394.757 387.184 C 395.241 387.184,395.340 386.440,395.340 382.813 C 395.340 376.577,396.208 374.363,398.884 373.776 C 399.641 373.609,400.000 373.290,400.000 372.785 C 400.000 372.038,399.202 371.881,397.573 372.307 M325.597 372.871 C 325.479 373.061,325.219 373.115,325.017 372.990 C 324.816 372.866,324.129 373.287,323.491 373.925 L 322.330 375.086 322.330 373.924 C 322.330 372.964,322.189 372.783,321.518 372.886 C 320.725 373.007,320.706 373.184,320.757 380.160 C 320.812 387.848,320.830 387.961,321.965 387.961 C 322.675 387.961,322.718 387.647,322.718 382.554 C 322.718 376.389,323.209 375.223,326.179 374.333 C 329.834 373.238,331.262 375.591,331.262 382.706 L 331.262 387.573 332.280 387.573 L 333.298 387.573 333.123 381.735 C 332.933 375.361,332.613 374.388,330.338 373.272 C 329.079 372.655,325.897 372.386,325.597 372.871 M342.557 372.938 C 342.325 373.170,342.136 373.215,342.136 373.040 C 342.136 372.864,341.874 372.938,341.553 373.204 C 341.049 373.623,340.707 375.146,341.118 375.146 C 341.198 375.146,341.892 374.883,342.659 374.563 C 345.500 373.376,347.852 374.431,348.501 377.184 C 348.727 378.144,348.643 378.259,347.677 378.319 C 344.501 378.515,342.407 379.235,341.090 380.582 C 337.138 384.624,343.413 390.755,347.612 386.955 C 348.365 386.274,349.096 386.603,349.120 387.634 C 349.124 387.774,349.444 387.805,349.832 387.704 C 350.633 387.495,350.639 377.815,349.840 375.229 C 349.174 373.077,344.035 371.460,342.557 372.938 M357.573 372.721 C 356.581 372.942,356.633 373.143,359.660 380.700 C 363.294 389.773,363.110 389.785,366.884 380.213 C 368.438 376.272,369.709 372.908,369.709 372.738 C 369.709 371.964,367.847 372.468,367.629 373.301 C 367.503 373.782,367.388 374.215,367.372 374.264 C 367.356 374.313,366.916 375.318,366.395 376.497 C 365.873 377.676,365.535 378.641,365.644 378.641 C 365.752 378.641,365.484 379.340,365.049 380.194 C 364.613 381.049,364.351 381.748,364.467 381.748 C 364.583 381.748,364.420 382.141,364.106 382.621 C 363.521 383.514,363.495 383.602,363.495 384.725 C 363.495 385.586,363.125 385.181,362.915 384.091 C 362.823 383.613,362.545 382.977,362.297 382.679 C 362.049 382.380,361.976 382.136,362.133 382.136 C 362.291 382.136,362.133 381.699,361.783 381.165 C 361.433 380.631,361.242 380.194,361.358 380.194 C 361.474 380.194,361.224 379.517,360.801 378.689 C 360.379 377.861,360.096 377.118,360.172 377.038 C 360.605 376.587,358.194 372.583,357.573 372.721 M305.049 373.170 C 304.621 373.349,304.141 373.419,303.981 373.327 C 303.820 373.234,303.689 373.353,303.689 373.592 C 303.689 373.831,303.515 373.918,303.301 373.786 C 303.087 373.654,302.913 373.927,302.913 374.391 C 302.913 375.117,303.063 375.200,303.981 374.977 C 307.569 374.106,308.940 374.230,310.027 375.522 C 311.525 377.301,311.441 378.641,309.831 378.641 C 308.205 378.641,304.078 379.808,304.078 380.268 C 304.078 380.466,303.906 380.522,303.695 380.392 C 302.980 379.950,301.804 382.524,301.905 384.313 C 302.116 388.049,307.745 389.766,310.558 386.953 L 311.456 386.055 311.456 387.008 C 311.456 387.722,311.664 387.961,312.285 387.961 C 313.250 387.961,313.223 377.168,312.252 375.113 C 311.370 373.244,307.418 372.179,305.049 373.170 M384.005 381.080 C 384.127 382.564,382.890 385.243,382.081 385.243 C 381.873 385.243,381.809 385.415,381.939 385.627 C 382.080 385.855,381.906 385.907,381.510 385.755 C 381.124 385.607,380.941 385.656,381.074 385.872 C 381.447 386.475,378.523 385.998,377.767 385.332 C 376.722 384.413,377.234 380.147,378.309 380.812 C 378.492 380.924,378.641 380.832,378.641 380.605 C 378.641 380.379,378.772 380.222,378.932 380.256 C 379.092 380.290,379.485 380.211,379.806 380.081 C 382.395 379.028,383.864 379.378,384.005 381.080 M348.354 382.088 C 348.126 384.478,347.615 385.442,346.367 385.838 C 345.956 385.969,345.708 386.219,345.817 386.394 C 345.925 386.570,345.369 386.568,344.582 386.390 C 343.794 386.212,343.021 386.147,342.864 386.244 C 342.707 386.341,342.451 386.216,342.297 385.966 C 342.111 385.664,342.200 385.606,342.561 385.794 C 342.961 386.001,342.951 385.939,342.524 385.563 C 340.571 383.839,342.122 380.967,345.437 380.166 C 348.423 379.446,348.596 379.560,348.354 382.088 M311.020 382.362 C 310.973 383.519,310.780 384.466,310.590 384.466 C 310.401 384.466,310.342 384.623,310.461 384.815 C 310.579 385.006,309.983 385.506,309.135 385.926 C 308.288 386.345,307.706 386.800,307.842 386.936 C 307.979 387.073,307.537 387.184,306.861 387.184 C 306.184 387.184,305.631 387.021,305.631 386.822 C 305.631 386.623,305.279 386.348,304.849 386.212 C 304.418 386.075,304.167 385.801,304.289 385.603 C 304.412 385.405,304.334 385.243,304.117 385.243 C 302.554 385.243,304.610 381.120,306.301 380.863 C 306.776 380.791,307.271 380.626,307.401 380.495 C 307.531 380.365,308.418 380.259,309.371 380.259 L 311.105 380.259 311.020 382.362 " stroke="none" fill="#040404" fill-rule="evenodd"></path><path id="path1" d="M118.447 37.929 L 116.311 38.095 112.075 53.319 C 109.745 61.693,104.980 78.592,101.487 90.874 C 94.092 116.869,93.449 119.209,93.642 119.403 C 93.868 119.628,103.273 120.547,103.444 120.361 C 103.528 120.269,105.646 112.942,108.150 104.078 C 110.655 95.214,112.766 87.857,112.843 87.730 C 112.919 87.602,114.692 87.845,116.782 88.270 C 141.034 93.197,160.337 80.075,159.538 59.204 C 158.962 44.173,143.183 36.003,118.447 37.929 M137.476 47.226 C 155.644 51.866,152.119 76.112,132.673 80.264 C 128.074 81.246,115.340 80.163,115.340 78.790 C 115.340 77.890,124.021 47.129,124.412 46.643 C 124.996 45.919,133.914 46.316,137.476 47.226 M367.516 317.442 C 367.654 323.831,367.767 336.545,367.767 345.694 L 367.767 362.330 369.913 362.330 L 372.059 362.330 372.023 349.143 C 371.990 336.860,372.039 335.839,372.746 334.242 C 373.514 332.506,376.107 329.320,376.752 329.320 C 376.945 329.320,377.798 328.881,378.648 328.345 C 379.499 327.808,380.194 327.493,380.194 327.646 C 380.194 327.798,380.404 327.713,380.660 327.456 C 381.293 326.823,385.738 326.862,387.294 327.514 C 392.435 329.668,393.721 333.336,393.760 345.954 C 393.776 350.796,393.897 356.417,394.030 358.447 L 394.271 362.136 396.165 362.001 L 398.058 361.867 398.051 349.963 C 398.042 336.849,397.760 333.784,396.250 330.421 C 392.913 322.985,382.899 320.820,376.041 326.051 C 375.335 326.589,374.757 326.912,374.757 326.768 C 374.757 326.625,374.497 326.723,374.179 326.987 C 373.861 327.251,373.699 327.626,373.820 327.821 C 373.940 328.015,373.835 328.127,373.587 328.068 C 373.339 328.009,372.802 328.570,372.393 329.314 L 371.650 330.667 371.650 318.185 L 371.650 305.702 369.457 305.764 L 367.264 305.825 367.516 317.442 M148.247 310.523 C 148.177 310.593,147.353 310.747,146.417 310.864 C 145.481 310.982,144.652 311.141,144.575 311.218 C 144.499 311.294,144.559 323.263,144.708 337.814 L 144.980 364.272 147.116 364.272 L 149.251 364.272 148.995 352.913 L 148.740 341.553 153.884 341.664 C 158.125 341.755,159.541 341.634,161.942 340.973 C 163.544 340.531,165.073 340.146,165.340 340.117 C 165.607 340.088,165.825 339.919,165.825 339.741 C 165.825 339.563,165.956 339.453,166.117 339.497 C 166.760 339.674,168.834 338.225,170.485 336.446 C 172.062 334.747,174.316 331.262,173.838 331.262 C 173.733 331.262,173.820 330.694,174.032 330.000 C 174.610 328.108,174.432 322.116,173.742 320.249 C 173.414 319.365,173.131 318.422,173.111 318.155 C 173.091 317.888,172.918 317.670,172.728 317.670 C 172.537 317.670,172.476 317.516,172.592 317.329 C 172.950 316.751,169.857 313.581,168.085 312.710 C 165.753 311.563,165.416 311.449,162.146 310.695 C 160.472 310.309,148.608 310.162,148.247 310.523 M161.359 314.313 C 165.167 315.328,167.614 317.061,168.975 319.709 C 169.387 320.510,169.623 321.165,169.500 321.165 C 169.376 321.165,169.411 321.383,169.578 321.650 C 172.449 326.246,168.681 334.845,162.797 337.128 C 160.381 338.065,151.376 338.562,149.619 337.855 L 148.753 337.506 148.750 325.866 L 148.747 314.225 149.811 314.064 C 152.367 313.676,159.550 313.831,161.359 314.313 M345.417 323.788 C 336.728 325.540,333.412 335.238,339.686 340.549 C 340.499 341.238,341.515 342.112,341.942 342.491 C 342.369 342.871,343.417 343.489,344.272 343.865 C 352.148 347.332,353.518 348.369,354.207 351.389 C 355.696 357.911,346.759 361.931,339.354 358.071 C 337.130 356.911,335.622 357.869,335.708 360.386 C 335.781 362.515,346.164 363.901,350.485 362.360 C 351.767 361.903,353.048 361.478,353.332 361.417 C 353.616 361.355,354.007 361.055,354.200 360.749 C 354.393 360.444,354.558 360.369,354.566 360.583 C 354.574 360.796,355.190 360.295,355.934 359.469 C 358.642 356.461,359.228 350.602,357.170 347.103 C 356.158 345.382,354.179 343.279,354.169 343.913 C 354.166 344.110,353.997 344.010,353.795 343.689 C 353.592 343.369,353.289 343.092,353.121 343.074 C 352.416 342.998,349.536 341.468,349.730 341.273 C 350.056 340.948,347.539 340.169,347.080 340.453 C 346.831 340.607,346.794 340.511,346.984 340.204 C 347.189 339.873,347.114 339.765,346.761 339.882 C 346.469 339.979,346.052 339.912,345.834 339.731 C 345.615 339.551,344.688 338.877,343.774 338.234 C 341.619 336.719,340.542 334.958,340.698 333.204 C 341.247 327.006,347.793 325.240,355.420 329.230 C 355.710 329.382,356.893 326.830,356.893 326.056 C 356.893 325.644,354.505 323.973,354.266 324.219 C 354.210 324.277,353.249 324.151,352.130 323.938 C 348.484 323.245,348.147 323.238,345.417 323.788 M309.284 324.433 C 307.325 325.046,304.381 326.625,303.957 327.290 C 303.783 327.561,303.493 327.692,303.311 327.579 C 302.583 327.129,298.466 333.281,298.054 335.436 C 297.982 335.810,297.897 336.117,297.864 336.117 C 297.831 336.117,297.730 336.466,297.638 336.893 C 296.592 341.760,296.720 348.837,297.916 352.233 C 298.932 355.118,302.109 359.612,303.133 359.612 C 303.439 359.612,303.689 359.774,303.689 359.972 C 303.689 360.517,308.268 362.560,310.602 363.057 C 316.058 364.219,327.540 362.369,326.796 360.447 C 326.659 360.095,326.451 359.325,326.332 358.738 C 326.126 357.719,325.487 357.361,324.908 357.940 C 324.759 358.089,324.367 358.250,324.036 358.298 C 323.705 358.347,323.142 358.514,322.785 358.670 C 321.819 359.090,321.248 359.212,318.086 359.673 C 314.928 360.133,312.289 359.762,309.215 358.427 C 308.303 358.031,307.513 357.742,307.459 357.785 C 307.111 358.064,303.832 354.435,303.063 352.919 C 301.923 350.675,300.971 347.143,300.971 345.161 L 300.971 343.689 314.994 343.689 L 329.017 343.689 328.826 340.097 C 328.178 327.956,319.711 321.169,309.284 324.433 M235.631 324.802 C 234.403 325.074,233.398 325.219,233.398 325.125 C 233.398 325.031,233.136 325.171,232.816 325.437 C 232.495 325.703,232.233 325.808,232.233 325.671 C 232.233 325.142,228.966 327.122,227.292 328.665 C 225.320 330.483,222.928 334.000,222.660 335.476 C 222.563 336.012,222.367 336.637,222.224 336.866 C 221.909 337.369,221.849 337.675,221.364 341.291 C 220.912 344.659,221.118 348.120,221.944 351.068 C 222.273 352.243,222.592 353.379,222.652 353.592 C 223.509 356.646,228.945 362.447,231.397 362.923 C 231.750 362.991,232.083 363.083,232.136 363.126 C 232.189 363.169,232.408 363.248,232.621 363.301 C 232.835 363.354,233.053 363.433,233.107 363.476 C 234.015 364.209,239.953 364.360,242.811 363.724 C 251.784 361.728,256.797 354.626,256.710 344.036 C 256.597 330.401,247.564 322.158,235.631 324.802 M193.107 325.249 C 182.756 327.498,176.806 338.826,179.571 351.023 C 182.616 364.455,199.242 369.161,209.228 359.417 C 210.569 358.109,211.734 357.106,211.817 357.189 C 211.952 357.324,212.539 355.828,212.543 355.340 C 212.544 355.233,212.758 354.971,213.020 354.757 C 214.631 353.443,215.613 345.124,214.786 339.806 C 213.172 329.435,203.557 322.979,193.107 325.249 M288.527 326.893 C 288.060 328.121,287.193 330.524,286.600 332.233 C 286.007 333.942,285.299 335.864,285.027 336.505 C 284.754 337.146,284.495 337.801,284.450 337.961 C 284.405 338.121,284.325 338.340,284.272 338.447 C 284.218 338.553,284.131 338.816,284.078 339.029 C 284.024 339.243,283.937 339.505,283.883 339.612 C 283.830 339.718,283.743 339.981,283.689 340.194 C 283.636 340.408,283.549 340.670,283.495 340.777 C 283.442 340.883,283.372 341.102,283.340 341.262 C 283.057 342.684,280.935 347.865,280.696 347.717 C 280.411 347.541,280.241 348.247,280.284 349.417 C 280.294 349.684,280.159 349.903,279.985 349.903 C 279.810 349.903,279.186 351.478,278.597 353.404 C 277.421 357.249,277.299 357.290,276.311 354.175 C 275.768 352.462,273.584 346.818,270.675 339.612 C 270.156 338.324,269.791 337.305,269.696 336.876 C 269.647 336.653,269.246 335.678,268.804 334.709 C 268.363 333.740,267.633 332.000,267.182 330.842 C 266.731 329.685,265.992 327.908,265.539 326.893 L 264.716 325.049 262.489 325.049 C 260.034 325.049,260.027 325.062,261.123 327.573 C 261.655 328.793,265.886 339.235,267.574 343.495 C 267.743 343.922,268.181 344.949,268.546 345.777 C 268.911 346.605,269.251 347.479,269.302 347.719 C 269.353 347.959,269.597 348.647,269.843 349.247 C 270.512 350.880,271.883 354.263,272.233 355.146 C 272.402 355.573,272.991 356.922,273.542 358.145 C 275.146 361.705,275.159 362.042,273.821 364.902 C 271.356 370.171,267.645 374.308,263.522 376.386 C 262.653 376.824,261.891 377.227,261.828 377.281 C 261.493 377.570,263.086 380.583,263.574 380.583 C 265.811 380.583,272.165 375.267,274.409 371.519 C 275.028 370.486,275.817 369.175,276.162 368.606 C 276.507 368.038,276.715 367.442,276.624 367.282 C 276.533 367.121,276.673 366.990,276.935 366.990 C 277.197 366.990,277.302 366.881,277.169 366.748 C 277.035 366.615,277.247 365.872,277.638 365.098 C 278.030 364.323,279.184 361.592,280.202 359.029 C 281.221 356.466,282.190 354.280,282.356 354.170 C 282.523 354.061,282.917 353.275,283.233 352.423 C 283.548 351.571,284.360 349.476,285.037 347.767 C 285.713 346.058,286.427 344.136,286.623 343.495 C 286.818 342.854,287.140 341.981,287.336 341.553 C 288.235 339.602,293.592 325.530,293.592 325.120 C 293.592 324.822,292.850 324.660,291.484 324.660 L 289.376 324.660 288.527 326.893 M317.611 328.036 C 321.181 329.690,323.921 333.680,324.427 337.961 L 324.645 339.806 312.951 339.806 L 301.258 339.806 301.480 338.433 C 302.741 330.663,311.332 325.126,317.611 328.036 M242.330 328.408 C 247.916 329.409,252.716 336.741,252.716 344.272 C 252.716 355.540,243.007 363.481,233.967 359.606 C 232.310 358.895,228.350 355.589,228.350 354.916 C 228.350 354.741,227.925 353.973,227.407 353.209 C 222.674 346.234,226.085 332.463,233.348 329.223 C 236.310 327.902,238.430 327.710,242.330 328.408 M202.684 329.818 C 205.138 331.024,208.054 334.156,208.742 336.323 C 208.875 336.744,209.128 337.087,209.303 337.087 C 209.479 337.087,209.614 337.306,209.604 337.573 C 209.555 338.908,209.742 339.831,210.027 339.655 C 210.202 339.547,210.277 340.017,210.193 340.700 C 210.077 341.655,210.137 341.807,210.452 341.359 C 210.752 340.934,210.863 341.802,210.868 344.586 C 210.871 346.716,210.721 348.301,210.528 348.182 C 210.338 348.064,210.064 348.622,209.919 349.421 C 208.478 357.368,200.172 362.641,192.965 360.185 C 179.190 355.491,180.487 330.878,194.625 328.673 C 195.339 328.562,196.010 328.384,196.117 328.277 C 196.591 327.805,200.414 328.702,202.684 329.818 " stroke="none" fill="#8c0505" fill-rule="evenodd"></path></g></svg>